<svg width="231" height="53" viewBox="0 0 231 53" fill="none" xmlns="http://www.w3.org/2000/svg">
<path d="M35.8191 8.20844V14.1021V14.4168L35.5354 14.5529L29.8703 17.2713L29.154 17.615V16.8205V2.03784V1.53784H29.654L52.4885 1.53784C52.4885 1.53784 52.4886 1.53784 52.4886 1.53784C54.4093 1.53738 56.3179 1.84091 58.1437 2.43716C59.9183 2.99866 61.5751 3.88052 63.0319 5.03908L63.0352 5.04168C64.4724 6.20443 65.646 7.65939 66.4782 9.31012L66.4806 9.31481C67.3713 11.1289 67.8175 13.1289 67.7822 15.1495M35.8191 8.20844L52.4886 50.6701M35.8191 8.20844H51.9219C53.8822 8.21877 55.7739 8.93112 57.2541 10.2164C57.9759 10.8479 58.5614 11.62 58.9748 12.4855L58.9753 12.4864C59.4133 13.3986 59.6346 14.3997 59.6219 15.4116L59.6218 15.4116L59.6219 15.4223C59.6305 16.3898 59.4252 17.3473 59.0207 18.2262L59.0201 18.2275C58.6284 19.0848 58.0757 19.8588 57.3918 20.5074C56.6895 21.1679 55.8664 21.6867 54.9676 22.0354C54.0188 22.3978 53.0113 22.5819 51.9956 22.5783H51.9939H23.6243V15.5375V15.2013L23.313 15.0744L16.7072 12.3832L16.0186 12.1026V12.8462V22.5566H12.2906C11.5287 21.4974 10.4644 20.6898 9.23448 20.2419C7.91871 19.7627 6.48348 19.7208 5.14196 20.1222C3.80045 20.5237 2.6242 21.3471 1.78794 22.4703C0.951675 23.5935 0.5 24.9564 0.5 26.3567C0.5 27.757 0.951675 29.12 1.78794 30.2431C2.6242 31.3663 3.80045 32.1898 5.14196 32.5912C6.48348 32.9927 7.91871 32.9507 9.23448 32.4716C10.4644 32.0237 11.5287 31.2161 12.2906 30.1569M35.8191 8.20844L2.18898 29.9445C2.961 30.9814 4.04686 31.7416 5.28531 32.1122C6.52376 32.4828 7.84871 32.4441 9.06339 32.0017C10.2781 31.5594 11.3177 30.7371 12.0278 29.6569M67.7822 15.1495C67.7882 16.5481 67.5293 17.9351 67.0192 19.2374L67.0191 19.2376C66.5426 20.4527 65.8771 21.5845 65.0475 22.5912V22.6009L64.9261 22.7416C63.5879 24.2931 61.9285 25.5272 60.0689 26.3622C61.9285 27.1971 63.5879 28.4312 64.9261 29.9827L64.9287 29.9858C65.8118 31.0265 66.5179 32.2052 67.0188 33.4749L67.0193 33.4762C67.5288 34.7785 67.7876 36.1653 67.7822 37.5637C67.8176 39.5861 67.3714 41.5879 66.4806 43.4039L66.4782 43.4088C65.6462 45.0584 64.4723 46.5117 63.0347 47.6721L63.0317 47.6745C61.5738 48.8327 59.9174 49.7162 58.1434 50.2818C56.3164 50.8718 54.4082 51.1715 52.4882 51.1701M67.7822 15.1495C67.7822 15.1514 67.7822 15.1531 67.7821 15.155L67.2822 15.146L67.7822 15.1436C67.7822 15.1456 67.7822 15.1476 67.7822 15.1495ZM52.4882 51.1701L52.4886 50.6701M52.4882 51.1701H52.4886V50.6701M52.4882 51.1701H29.654H29.154V50.6701V35.8657V35.0712L29.8703 35.4149L35.5354 38.1333L35.8191 38.2695V38.5841V44.4887M52.4886 50.6701H30.154H29.654V50.1701V36.4203L29.4376 36.3165L29.654 35.8657H30.154V36.1056L35.3191 38.5841V44.4887H35.8191M35.8191 44.4887V44.9887H51.9232C52.9573 44.993 53.9835 44.8087 54.9515 44.445C55.9131 44.0877 56.804 43.5631 57.5829 42.8955M35.8191 44.4887H51.9232H51.9253C52.8986 44.4927 53.8645 44.3193 54.7756 43.9769L54.7773 43.9763C55.6828 43.6399 56.5216 43.1461 57.2552 42.5178M57.2552 42.5178C57.2545 42.5184 57.2538 42.5191 57.2531 42.5197L57.5829 42.8955M57.2552 42.5178C57.256 42.5172 57.2568 42.5165 57.2575 42.5159L57.5829 42.8955M57.2552 42.5178C57.9749 41.8858 58.5595 41.115 58.974 40.2515M57.5829 42.8955C58.3549 42.2181 58.9819 41.3914 59.426 40.4652M59.426 40.4652L58.9728 40.2539C58.9732 40.2531 58.9736 40.2523 58.974 40.2515M59.426 40.4652C59.876 39.5003 60.1133 38.4499 60.1217 37.3852C60.1302 36.3205 59.9096 35.2664 59.4749 34.2945M59.426 40.4652L58.9751 40.2491C58.9748 40.2499 58.9744 40.2507 58.974 40.2515M58.974 40.2515C59.393 39.3522 59.6139 38.3733 59.6217 37.3812C59.6296 36.389 59.4242 35.4066 59.0194 34.5007M59.4749 34.2945L59.0203 34.5026C59.02 34.502 59.0197 34.5013 59.0194 34.5007M59.4749 34.2945C59.0563 33.3802 58.4656 32.5551 57.7351 31.8642M59.4749 34.2945L59.0185 34.4986C59.0188 34.4993 59.0191 34.5 59.0194 34.5007M59.0194 34.5007C58.6276 33.6456 58.0749 32.8738 57.3916 32.2275M57.7351 31.8642L57.3919 32.2278C57.3918 32.2277 57.3917 32.2276 57.3916 32.2275M57.7351 31.8642C56.9867 31.1575 56.1076 30.6035 55.1472 30.2332M57.7351 31.8642L57.3916 32.2275M57.3916 32.2275C56.6905 31.5656 55.8672 31.0468 54.9677 30.6998M55.1472 30.2332L54.9687 30.7002C54.9684 30.7001 54.968 30.7 54.9677 30.6998M55.1472 30.2332C54.1406 29.8485 53.0715 29.6531 51.9939 29.6569H23.6243V30.1569M55.1472 30.2332L54.9673 30.6997C54.9674 30.6997 54.9676 30.6998 54.9677 30.6998M54.9677 30.6998C54.0189 30.3374 53.0113 30.1533 51.9956 30.1569L51.9939 30.1569L23.6243 30.1569M23.6243 30.1569H23.1243V37.1542L17.0186 39.6669V39.8726H16.5186L16.3283 39.4103L16.5186 39.3319V30.1569H16.0186M23.6243 30.1569V37.1542V37.4891L23.3146 37.6166L16.7089 40.335L16.0186 40.6191V39.8726V30.1569M16.0186 30.1569V29.6569H12.0278M16.0186 30.1569H12.2906M12.2906 30.1569C12.3437 30.083 12.3954 30.0078 12.4456 29.9315L12.0278 29.6569M12.2906 30.1569H12.0278V29.6569" fill="#02173D" stroke="#02173D"/>
<path d="M110.288 31.3148L110.288 31.3118L110.288 1.52893V1.02893H110.788H117.698H118.198V1.52893V31.2655C118.23 34.0902 117.706 36.8935 116.656 39.516M110.288 31.3148L116.192 39.3311M110.288 31.3148C110.298 33.0864 109.999 34.8462 109.404 36.5147C108.847 38.0584 107.993 39.4783 106.891 40.6943C105.772 41.894 104.41 42.8419 102.896 43.4748L102.896 43.4748C101.193 44.1875 99.3625 44.5444 97.5166 44.5235L97.5093 44.5234L97.5019 44.5235C95.612 44.5578 93.7355 44.2008 91.9903 43.475C90.4706 42.8325 89.1102 41.8647 88.0049 40.6397C86.9157 39.4112 86.0795 37.98 85.5442 36.4279L85.544 36.4272C84.963 34.7504 84.6726 32.9867 84.6853 31.2121V31.2085V1.52893V1.02893H84.1853H77.286H76.786V1.52893V31.265C76.7485 34.1499 77.2918 37.0128 78.3835 39.6834L78.3849 39.6868C79.3988 42.116 80.8995 44.3119 82.7944 46.1391L82.7979 46.1425C84.6974 47.9386 86.9383 49.3351 89.3875 50.2491L89.3887 50.2495C91.9875 51.2119 94.739 51.6958 97.5101 51.6779M110.288 31.3148L97.5101 51.6779M116.656 39.516C116.656 39.5163 116.656 39.5166 116.656 39.5169L116.192 39.3311M116.656 39.516C116.656 39.516 116.656 39.5159 116.656 39.5159L116.192 39.3311M116.656 39.516C115.687 41.9529 114.221 44.1611 112.351 45.9996C110.48 47.838 108.248 49.2664 105.795 50.1938M116.192 39.3311C115.248 41.7035 113.821 43.8532 112 45.643C110.179 47.4328 108.005 48.8235 105.617 49.7263M105.795 50.1938C105.795 50.1937 105.795 50.1936 105.795 50.1935L105.617 49.7263M105.795 50.1938C103.15 51.2016 100.34 51.705 97.5101 51.6779M105.795 50.1938C105.794 50.1938 105.794 50.1939 105.794 50.194L105.617 49.7263M105.617 49.7263L97.5101 51.6779" fill="#02173D" stroke="#02173D"/>
<path d="M129.254 8.64607H155.798L127.386 44.9447L127.313 45.0323L127.197 45.1741L127.199 45.3578L127.281 50.675L127.288 51.1674H127.781H167.442H167.942V50.6674V44.5292V44.0292H167.442H137.935L166.386 7.65994L166.458 7.5723L166.572 7.43383V7.25443V2.04053V1.54053H166.072H129.254H128.754V2.04053V8.14607V8.64607H129.254Z" fill="#02173D" stroke="#02173D"/>
<path d="M229.085 19.4422L229.085 19.4419C227.858 15.0927 225.494 11.1491 222.236 8.01737C218.951 4.85474 214.915 2.58037 210.508 1.4085L210.506 1.40801C205.882 0.197328 201.024 0.197328 196.4 1.40801L196.398 1.40848C192.006 2.57547 187.988 4.85167 184.729 8.01863C181.415 11.216 179.03 15.2516 177.827 19.6964C176.624 24.1414 176.648 28.8294 177.897 33.2618L177.897 33.2619C178.509 35.4326 179.41 37.5111 180.577 39.4414L180.577 39.442C181.733 41.35 183.128 43.1026 184.728 44.6574L184.729 44.6585C186.34 46.214 188.137 47.563 190.08 48.6746L190.081 48.675C192.066 49.8055 194.189 50.6751 196.397 51.2623C200.906 52.4871 205.656 52.5226 210.183 51.3656C214.711 50.2084 218.861 47.8979 222.23 44.6593L222.231 44.6589C223.84 43.109 225.241 41.3573 226.4 39.4477L226.4 39.4468C227.568 37.5146 228.471 35.4346 229.085 33.2623L229.085 33.2616C230.357 28.7429 230.357 23.961 229.085 19.4422ZM221.501 31.2743L221.496 31.2792L221.461 31.4082C221.038 32.9749 220.409 34.4788 219.593 35.8811C218.79 37.2558 217.81 38.5187 216.678 39.6371L216.677 39.6377C215.546 40.7578 214.276 41.7275 212.897 42.5229C211.495 43.3287 209.997 43.9534 208.438 44.3819C205.187 45.2579 201.763 45.2579 198.512 44.382C196.963 43.954 195.474 43.3314 194.081 42.5289C192.708 41.7297 191.443 40.7583 190.317 39.6383L190.316 39.6371C189.184 38.5191 188.204 37.2567 187.402 35.8826C185.947 33.3366 185.095 30.4909 184.911 27.5642C184.727 24.6372 185.217 21.707 186.343 18.9988C187.281 16.7776 188.632 14.7545 190.324 13.0367C193.825 9.56183 198.558 7.61182 203.491 7.61182C208.424 7.61182 213.157 9.5617 216.658 13.0364C218.993 15.4109 220.666 18.3555 221.51 21.5772C222.342 24.757 222.339 28.0974 221.501 31.2743ZM189.964 39.9929C188.8 38.8435 187.793 37.5456 186.969 36.1328C185.475 33.5199 184.6 30.5993 184.412 27.5955C184.223 24.5918 184.726 21.5848 185.881 18.8056L189.964 39.9929Z" fill="#02173D" stroke="#02173D"/>
</svg>
